<svg width="45" height="45" viewBox="0 0 45 45" fill="none" xmlns="http://www.w3.org/2000/svg">
<rect width="45" height="45" rx="22.5" fill="white"/>
<path d="M32.7857 10.5H12.2089C11.2661 10.5 10.5 11.2768 10.5 12.2304V32.7696C10.5 33.7232 11.2661 34.5 12.2089 34.5H32.7857C33.7286 34.5 34.5 33.7232 34.5 32.7696V12.2304C34.5 11.2768 33.7286 10.5 32.7857 10.5ZM17.7536 31.0714H14.1964V19.6179H17.7589V31.0714H17.7536ZM15.975 18.0536C14.8339 18.0536 13.9125 17.1268 13.9125 15.9911C13.9125 14.8554 14.8339 13.9286 15.975 13.9286C17.1107 13.9286 18.0375 14.8554 18.0375 15.9911C18.0375 17.1321 17.1161 18.0536 15.975 18.0536ZM31.0875 31.0714H27.5304V25.5C27.5304 24.1714 27.5036 22.4625 25.6821 22.4625C23.8286 22.4625 23.5446 23.9089 23.5446 25.4036V31.0714H19.9875V19.6179H23.4V21.1821H23.4482C23.925 20.2821 25.0875 19.3339 26.8179 19.3339C30.4179 19.3339 31.0875 21.7071 31.0875 24.7929V31.0714Z" fill="#98212D"/>
</svg>
