<svg width="45" height="45" viewBox="0 0 45 45" fill="none" xmlns="http://www.w3.org/2000/svg">
<rect width="45" height="45" rx="22.5" fill="white"/>
<path d="M18.0102 30.5717C18.0102 30.6811 17.8844 30.7686 17.7258 30.7686C17.5453 30.785 17.4195 30.6975 17.4195 30.5717C17.4195 30.4623 17.5453 30.3748 17.7039 30.3748C17.868 30.3584 18.0102 30.4459 18.0102 30.5717ZM16.3094 30.3256C16.2711 30.435 16.3805 30.5607 16.5445 30.5936C16.6867 30.6482 16.8508 30.5936 16.8836 30.4842C16.9164 30.3748 16.8125 30.249 16.6484 30.1998C16.5063 30.1615 16.3477 30.2162 16.3094 30.3256ZM18.7266 30.2326C18.568 30.2709 18.4586 30.3748 18.475 30.5006C18.4914 30.61 18.6336 30.6811 18.7977 30.6428C18.9563 30.6045 19.0656 30.5006 19.0492 30.3912C19.0328 30.2873 18.8852 30.2162 18.7266 30.2326ZM22.325 9.27637C14.7398 9.27637 8.9375 15.035 8.9375 22.6201C8.9375 28.685 12.7547 33.8748 18.207 35.7014C18.907 35.8271 19.1531 35.3951 19.1531 35.0396C19.1531 34.7006 19.1367 32.8303 19.1367 31.6818C19.1367 31.6818 15.3086 32.5021 14.5047 30.0521C14.5047 30.0521 13.8812 28.4607 12.9844 28.0506C12.9844 28.0506 11.732 27.192 13.0719 27.2084C13.0719 27.2084 14.4336 27.3178 15.1828 28.6193C16.3805 30.7303 18.3875 30.1232 19.1695 29.7623C19.2953 28.8873 19.6508 28.2803 20.0445 27.9193C16.9875 27.5803 13.9031 27.1373 13.9031 21.8764C13.9031 20.3725 14.3188 19.6178 15.1938 18.6553C15.0516 18.2998 14.5867 16.8342 15.3359 14.942C16.4789 14.5865 19.1094 16.4186 19.1094 16.4186C20.2031 16.1123 21.3789 15.9537 22.5438 15.9537C23.7086 15.9537 24.8844 16.1123 25.9781 16.4186C25.9781 16.4186 28.6086 14.5811 29.7516 14.942C30.5008 16.8396 30.0359 18.2998 29.8938 18.6553C30.7688 19.6232 31.3047 20.3779 31.3047 21.8764C31.3047 27.1537 28.0836 27.5748 25.0266 27.9193C25.5297 28.3514 25.9563 29.1717 25.9563 30.4568C25.9563 32.2998 25.9398 34.5803 25.9398 35.0287C25.9398 35.3842 26.1914 35.8162 26.8859 35.6904C32.3547 33.8748 36.0625 28.685 36.0625 22.6201C36.0625 15.035 29.9102 9.27637 22.325 9.27637ZM14.2531 28.1381C14.182 28.1928 14.1984 28.3186 14.2914 28.4225C14.3789 28.51 14.5047 28.5482 14.5758 28.4771C14.6469 28.4225 14.6305 28.2967 14.5375 28.1928C14.45 28.1053 14.3242 28.067 14.2531 28.1381ZM13.6625 27.6951C13.6242 27.7662 13.6789 27.8537 13.7883 27.9084C13.8758 27.9631 13.9852 27.9467 14.0234 27.8701C14.0617 27.799 14.007 27.7115 13.8977 27.6568C13.7883 27.624 13.7008 27.6404 13.6625 27.6951ZM15.4344 29.642C15.3469 29.7131 15.3797 29.8771 15.5055 29.9811C15.6312 30.1068 15.7898 30.1232 15.8609 30.0357C15.932 29.9646 15.8992 29.8006 15.7898 29.6967C15.6695 29.5709 15.5055 29.5545 15.4344 29.642ZM14.8109 28.8381C14.7234 28.8928 14.7234 29.035 14.8109 29.1607C14.8984 29.2865 15.0461 29.3412 15.1172 29.2865C15.2047 29.2154 15.2047 29.0732 15.1172 28.9475C15.0406 28.8217 14.8984 28.767 14.8109 28.8381Z" fill="#98212D"/>
</svg>
