<svg width="45" height="45" viewBox="0 0 45 45" fill="none" xmlns="http://www.w3.org/2000/svg">
<rect width="45" height="45" rx="22.5" fill="white"/>
<path d="M22.5 12C16.7031 12 12 16.7031 12 22.5C12 28.2969 16.7031 33 22.5 33C23.468 33 24.25 33.782 24.25 34.75C24.25 35.718 23.468 36.5 22.5 36.5C14.7672 36.5 8.5 30.2328 8.5 22.5C8.5 14.7672 14.7672 8.5 22.5 8.5C30.2328 8.5 36.5 14.7672 36.5 22.5V24.25C36.5 27.1484 34.1484 29.5 31.25 29.5C29.6477 29.5 28.2094 28.7781 27.2469 27.6461C26 28.7945 24.332 29.5 22.5 29.5C18.6336 29.5 15.5 26.3664 15.5 22.5C15.5 18.6336 18.6336 15.5 22.5 15.5C24.0258 15.5 25.4367 15.9867 26.5852 16.818C26.8969 16.5445 27.3016 16.375 27.75 16.375C28.718 16.375 29.5 17.157 29.5 18.125V22.5V24.25C29.5 25.218 30.282 26 31.25 26C32.218 26 33 25.218 33 24.25V22.5C33 16.7031 28.2969 12 22.5 12ZM26 22.5C26 21.5717 25.6313 20.6815 24.9749 20.0251C24.3185 19.3687 23.4283 19 22.5 19C21.5717 19 20.6815 19.3687 20.0251 20.0251C19.3687 20.6815 19 21.5717 19 22.5C19 23.4283 19.3687 24.3185 20.0251 24.9749C20.6815 25.6313 21.5717 26 22.5 26C23.4283 26 24.3185 25.6313 24.9749 24.9749C25.6313 24.3185 26 23.4283 26 22.5Z" fill="#98212D"/>
</svg>
